<?xml version="1.0" encoding="iso-8859-1"?><!-- Generator: Adobe Illustrator 23.0.3, SVG Export Plug-In . SVG Version: 6.00 Build 0)  --><svg xmlns="http://www.w3.org/2000/svg" xmlns:xlink="http://www.w3.org/1999/xlink" viewBox="0 0 50 50" width="20px" height="20px"><g id="&#x421;&#x43B;&#x43E;&#x439;_1" style="display:none;"></g><g id="ref"><g><path style="fill:none;" d="M47.982,24.3c-0.843-1.396-2.012-2.8-2.979-2.8c-1.713,0-2.127,2.003-2.492,3.77c-0.365,1.768-0.73,3.23-1.504,3.23c-0.76,0-1.212-3.223-1.429-4.771c-0.391-2.789-0.729-5.198-2.555-5.229c-0.013,0-0.026,0-0.039,0c-2.16,0-2.347,3.042-2.582,6.887c-0.209,3.424-0.496,8.113-2.396,8.113c-2.401,0-2.958-5.564-3.405-10.036c-0.5-5.006-0.896-8.96-3.595-8.964c-0.001,0-0.003,0-0.004,0c-2.702,0.004-3.098,3.961-3.599,8.969c-0.447,4.47-1.004,10.031-3.401,10.031c-1.902,0-2.188-4.69-2.397-8.115c-0.234-3.844-0.42-6.885-2.58-6.885c-0.013,0-0.026,0-0.039,0c-1.826,0.03-2.164,2.439-2.555,5.229C10.215,25.277,9.764,28.5,9.003,28.5c-0.774,0-1.141-1.464-1.506-3.231C7.131,23.502,6.716,21.5,5.003,21.5c-0.969,0-2.144,1.432-2.987,2.841"/><path style="fill:none;" d="M2.04,26.319c1.111-1.012,2.668-2.728,2.881-2.804c0.239,0.334,0.473,1.464,0.617,2.158C5.96,27.711,6.538,30.5,9.003,30.5c2.5,0,2.983-3.45,3.409-6.494c0.148-1.054,0.357-2.55,0.626-3.246c0.335,0.888,0.475,3.165,0.571,4.747c0.286,4.685,0.61,9.993,4.394,9.993c4.207,0,4.836-6.286,5.391-11.832c0.233-2.324,0.717-7.161,1.611-7.168c0.892,0.007,1.375,4.84,1.607,7.163c0.555,5.548,1.184,11.837,5.395,11.837c3.781,0,4.106-5.308,4.393-9.991c0.097-1.582,0.236-3.861,0.572-4.75c0.269,0.697,0.479,2.193,0.626,3.247c0.426,3.044,0.91,6.494,3.409,6.494c2.466,0,3.042-2.789,3.463-4.826c0.143-0.694,0.376-1.823,0.615-2.158c0.213,0.075,1.76,1.808,2.873,2.82"/><path d="M5.003,21.5c1.713,0,2.128,2.002,2.494,3.769C7.863,27.036,8.229,28.5,9.003,28.5c0.76,0,1.212-3.223,1.429-4.771c0.391-2.789,0.729-5.198,2.555-5.229c0.013,0,0.026,0,0.039,0c2.16,0,2.346,3.041,2.58,6.885c0.209,3.425,0.495,8.115,2.397,8.115c2.397,0,2.954-5.562,3.401-10.031c0.501-5.008,0.897-8.965,3.599-8.969c0.001,0,0.003,0,0.004,0c2.699,0.004,3.095,3.958,3.595,8.964C29.05,27.936,29.606,33.5,32.007,33.5c1.9,0,2.187-4.689,2.396-8.113c0.235-3.845,0.422-6.887,2.582-6.887c0.013,0,0.025,0,0.039,0c1.826,0.03,2.164,2.439,2.555,5.229c0.217,1.549,0.668,4.771,1.429,4.771c0.774,0,1.139-1.463,1.504-3.23c0.365-1.767,0.779-3.77,2.492-3.77c0.967,0,2.136,1.404,2.979,2.8C47.61,11.941,37.448,2,25,2C12.539,2,2.367,11.963,2.017,24.341C2.859,22.932,4.034,21.5,5.003,21.5z"/><path d="M45.085,23.516c-0.238,0.335-0.472,1.464-0.615,2.158c-0.421,2.037-0.997,4.826-3.463,4.826c-2.5,0-2.983-3.45-3.409-6.494c-0.148-1.054-0.357-2.55-0.626-3.247c-0.335,0.889-0.475,3.168-0.572,4.75c-0.287,4.684-0.611,9.991-4.393,9.991c-4.21,0-4.84-6.289-5.395-11.837c-0.232-2.323-0.716-7.156-1.607-7.163c-0.894,0.007-1.378,4.844-1.611,7.168C22.84,29.214,22.21,35.5,18.003,35.5c-3.784,0-4.108-5.309-4.394-9.993c-0.097-1.582-0.236-3.859-0.571-4.747c-0.269,0.696-0.478,2.192-0.626,3.246c-0.426,3.044-0.91,6.494-3.409,6.494c-2.466,0-3.043-2.789-3.465-4.826c-0.144-0.694-0.378-1.824-0.617-2.158c-0.214,0.076-1.77,1.792-2.881,2.804C2.727,38.39,12.761,48,25,48c12.234,0,22.264-9.601,22.958-21.664C46.845,25.324,45.298,23.591,45.085,23.516z"/></g></g><g id="&#x421;&#x43B;&#x43E;&#x439;_3"></g><g id="Layer_4"></g></svg>